<?xml version="1.0" standalone="no"?>
<!DOCTYPE svg PUBLIC "-//W3C//DTD SVG 20010904//EN"
 "http://www.w3.org/TR/2001/REC-SVG-20010904/DTD/svg10.dtd">
<svg version="1.0" xmlns="http://www.w3.org/2000/svg"
 width="778.000000pt" height="704.000000pt" viewBox="0 0 778.000000 704.000000"
 preserveAspectRatio="xMidYMid meet">

<g transform="translate(0.000000,704.000000) scale(0.100000,-0.100000)"
fill="#000000" stroke="none">
<path d="M3704 3677 l-2059 -2056 172 -173 173 -173 304 304 304 304 115 -51
c240 -107 552 -198 807 -237 152 -23 421 -30 570 -16 721 70 1418 406 2160
1040 259 221 699 682 747 781 25 53 29 132 8 186 -32 84 -320 406 -569 637
-291 269 -504 436 -836 655 -2 1 110 117 250 257 l255 255 -171 171 -172 172
-2058 -2056z m1642 786 c327 -211 649 -477 952 -787 l163 -167 -39 -47 c-67
-79 -401 -402 -522 -503 -327 -274 -597 -457 -889 -603 -422 -212 -754 -299
-1136 -299 -198 0 -316 15 -511 62 -121 30 -369 112 -385 128 -5 5 84 101 199
215 l207 207 72 -34 c39 -19 111 -47 160 -62 80 -24 104 -26 253 -27 143 -1
176 2 249 22 274 75 498 257 621 506 79 159 94 229 94 431 0 195 -14 264 -82
408 l-40 82 262 263 c143 144 266 262 272 262 6 0 51 -26 100 -57z m-992 -880
c42 -257 -133 -503 -392 -554 -59 -11 -187 -7 -200 6 -6 6 568 585 579 585 4
0 9 -17 13 -37z"/>
<path d="M3690 5434 c-740 -65 -1487 -429 -2242 -1093 -212 -186 -531 -515
-656 -678 -47 -60 -65 -117 -58 -181 8 -67 21 -91 91 -178 213 -260 590 -625
891 -861 l40 -32 175 175 c164 164 173 175 154 188 -206 144 -780 682 -780
731 0 22 232 262 402 415 625 565 1216 893 1808 1004 205 38 491 40 689 5 l59
-10 198 197 c129 128 194 201 186 205 -27 15 -277 71 -400 90 -127 19 -450 32
-557 23z"/>
<path d="M3703 4455 c-100 -18 -164 -40 -267 -93 -278 -142 -467 -404 -516
-716 -6 -38 -9 -70 -7 -72 1 -2 205 199 452 446 293 293 443 450 430 449 -11
0 -52 -7 -92 -14z"/>
</g>
</svg>
