<?xml version="1.0" standalone="no"?>
<!DOCTYPE svg PUBLIC "-//W3C//DTD SVG 20010904//EN"
 "http://www.w3.org/TR/2001/REC-SVG-20010904/DTD/svg10.dtd">
<svg version="1.0" xmlns="http://www.w3.org/2000/svg"
 width="690.000000pt" height="611.000000pt" viewBox="0 0 690.000000 611.000000"
 preserveAspectRatio="xMidYMid meet">

<g transform="translate(0.000000,611.000000) scale(0.100000,-0.100000)"
fill="#000000" stroke="none">
<path d="M3225 4959 c-746 -71 -1523 -468 -2287 -1166 -260 -237 -562 -568
-606 -661 -28 -62 -28 -142 1 -202 23 -48 189 -240 359 -416 499 -513 1088
-937 1623 -1164 925 -394 1769 -323 2724 228 487 280 1075 784 1466 1257 96
116 116 203 69 301 -37 77 -309 376 -544 599 -924 876 -1917 1308 -2805 1224z
m515 -496 c552 -75 1163 -389 1770 -912 151 -130 520 -495 520 -515 0 -20
-245 -271 -408 -419 -639 -578 -1240 -905 -1852 -1009 -163 -28 -451 -29 -615
-4 -553 87 -1127 380 -1715 876 -136 115 -486 452 -542 523 l-30 37 209 208
c425 424 793 703 1217 922 516 267 966 358 1446 293z"/>
<path d="M3260 3981 c-305 -67 -557 -267 -686 -545 -66 -144 -79 -211 -78
-406 0 -161 2 -182 27 -263 50 -164 125 -289 244 -410 123 -125 268 -210 438
-259 109 -31 360 -33 475 -4 103 26 212 73 301 130 94 61 242 212 295 302 227
384 180 843 -118 1169 -110 120 -299 233 -463 276 -116 31 -321 35 -435 10z
m281 -471 c141 -26 280 -133 344 -264 181 -371 -155 -782 -556 -678 -171 45
-313 195 -350 370 -68 330 230 634 562 572z"/>
</g>
</svg>
